<?xml version="1.0" encoding="UTF-8" standalone="no"?>
<!-- Created with Inkscape (http://www.inkscape.org/) -->

<svg
   width="124.44234mm"
   height="164.09039mm"
   viewBox="0 0 124.44234 164.09039"
   version="1.1"
   id="svg1"
   xml:space="preserve"
   xmlns="http://www.w3.org/2000/svg"
   xmlns:svg="http://www.w3.org/2000/svg"><defs
     id="defs1"><clipPath
       clipPathUnits="userSpaceOnUse"
       id="clipPath5"><path
         d="M 0,500 H 500 V 0 H 0 Z"
         transform="translate(-225.85641,-351.57961)"
         id="path5" /></clipPath><clipPath
       clipPathUnits="userSpaceOnUse"
       id="clipPath7"><path
         d="M 0,500 H 500 V 0 H 0 Z"
         transform="translate(-257.69731,-430.38871)"
         id="path7" /></clipPath><clipPath
       clipPathUnits="userSpaceOnUse"
       id="clipPath9"><path
         d="M 0,500 H 500 V 0 H 0 Z"
         transform="translate(-267.09961,-482.33451)"
         id="path9" /></clipPath><clipPath
       clipPathUnits="userSpaceOnUse"
       id="clipPath11"><path
         d="M 0,500 H 500 V 0 H 0 Z"
         transform="translate(-305.76561,-437.49611)"
         id="path11" /></clipPath><clipPath
       clipPathUnits="userSpaceOnUse"
       id="clipPath13"><path
         d="M 0,500 H 500 V 0 H 0 Z"
         transform="translate(-306.49711,-429.11821)"
         id="path13" /></clipPath><clipPath
       clipPathUnits="userSpaceOnUse"
       id="clipPath15"><path
         d="M 0,500 H 500 V 0 H 0 Z"
         transform="translate(-305.69141,-420.66061)"
         id="path15" /></clipPath><clipPath
       clipPathUnits="userSpaceOnUse"
       id="clipPath17"><path
         d="M 0,500 H 500 V 0 H 0 Z"
         transform="translate(-302.90041,-412.60451)"
         id="path17" /></clipPath><clipPath
       clipPathUnits="userSpaceOnUse"
       id="clipPath19"><path
         d="M 0,500 H 500 V 0 H 0 Z"
         transform="translate(-298.43751,-405.36521)"
         id="path19" /></clipPath><clipPath
       clipPathUnits="userSpaceOnUse"
       id="clipPath21"><path
         d="M 0,500 H 500 V 0 H 0 Z"
         transform="translate(-292.78911,-399.07571)"
         id="path21" /></clipPath><clipPath
       clipPathUnits="userSpaceOnUse"
       id="clipPath23"><path
         d="M 0,500 H 500 V 0 H 0 Z"
         transform="translate(-286.31931,-393.66551)"
         id="path23" /></clipPath><clipPath
       clipPathUnits="userSpaceOnUse"
       id="clipPath25"><path
         d="M 0,500 H 500 V 0 H 0 Z"
         transform="translate(-260.58301,-431.80131)"
         id="path25" /></clipPath><clipPath
       clipPathUnits="userSpaceOnUse"
       id="clipPath27"><path
         d="M 0,500 H 500 V 0 H 0 Z"
         transform="translate(-267.6787,-383.38621)"
         id="path27" /></clipPath><clipPath
       clipPathUnits="userSpaceOnUse"
       id="clipPath29"><path
         d="M 0,500 H 500 V 0 H 0 Z"
         transform="translate(-304.60451,-443.30861)"
         id="path29" /></clipPath><clipPath
       clipPathUnits="userSpaceOnUse"
       id="clipPath31"><path
         d="M 0,500 H 500 V 0 H 0 Z"
         transform="translate(-301.98731,-451.26461)"
         id="path31" /></clipPath><clipPath
       clipPathUnits="userSpaceOnUse"
       id="clipPath33"><path
         d="M 0,500 H 500 V 0 H 0 Z"
         transform="translate(-298.14061,-458.79441)"
         id="path33" /></clipPath><clipPath
       clipPathUnits="userSpaceOnUse"
       id="clipPath35"><path
         d="M 0,500 H 500 V 0 H 0 Z"
         transform="translate(-293.041,-465.68851)"
         id="path35" /></clipPath><clipPath
       clipPathUnits="userSpaceOnUse"
       id="clipPath37"><path
         d="M 0,500 H 500 V 0 H 0 Z"
         transform="translate(-286.7764,-471.76861)"
         id="path37" /></clipPath><clipPath
       clipPathUnits="userSpaceOnUse"
       id="clipPath39"><path
         d="M 0,500 H 500 V 0 H 0 Z"
         transform="translate(-279.45901,-476.90481)"
         id="path39" /></clipPath><clipPath
       clipPathUnits="userSpaceOnUse"
       id="clipPath41"><path
         d="M 0,500 H 500 V 0 H 0 Z"
         transform="translate(-271.19341,-480.95651)"
         id="path41" /></clipPath><clipPath
       clipPathUnits="userSpaceOnUse"
       id="clipPath43"><path
         d="M 0,500 H 500 V 0 H 0 Z"
         transform="translate(-253.0303,-422.68211)"
         id="path43" /></clipPath><clipPath
       clipPathUnits="userSpaceOnUse"
       id="clipPath45"><path
         d="M 0,500 H 500 V 0 H 0 Z"
         transform="translate(-193.6738,-343.29491)"
         id="path45" /></clipPath><clipPath
       clipPathUnits="userSpaceOnUse"
       id="clipPath47"><path
         d="M 0,500 H 500 V 0 H 0 Z"
         transform="translate(-265.09081,-430.42821)"
         id="path47" /></clipPath><clipPath
       clipPathUnits="userSpaceOnUse"
       id="clipPath49"><path
         d="M 0,500 H 500 V 0 H 0 Z"
         transform="translate(-267.53811,-419.86181)"
         id="path49" /></clipPath><clipPath
       clipPathUnits="userSpaceOnUse"
       id="clipPath51"><path
         d="M 0,500 H 500 V 0 H 0 Z"
         transform="translate(-191.9556,-363.11131)"
         id="path51" /></clipPath><clipPath
       clipPathUnits="userSpaceOnUse"
       id="clipPath53"><path
         d="M 0,500 H 500 V 0 H 0 Z"
         transform="translate(-195.5757,-377.51711)"
         id="path53" /></clipPath><clipPath
       clipPathUnits="userSpaceOnUse"
       id="clipPath55"><path
         d="M 0,500 H 500 V 0 H 0 Z"
         transform="translate(-198.98001,-364.84181)"
         id="path55" /></clipPath><clipPath
       clipPathUnits="userSpaceOnUse"
       id="clipPath57"><path
         d="M 0,500 H 500 V 0 H 0 Z"
         transform="translate(-197.2192,-364.28121)"
         id="path57" /></clipPath><clipPath
       clipPathUnits="userSpaceOnUse"
       id="clipPath59"><path
         d="M 0,500 H 500 V 0 H 0 Z"
         transform="translate(-192.9795,-374.08941)"
         id="path59" /></clipPath><clipPath
       clipPathUnits="userSpaceOnUse"
       id="clipPath61"><path
         d="M 0,500 H 500 V 0 H 0 Z"
         transform="translate(-197.5767,-361.93851)"
         id="path61" /></clipPath><clipPath
       clipPathUnits="userSpaceOnUse"
       id="clipPath63"><path
         d="M 0,500 H 500 V 0 H 0 Z"
         transform="translate(-194.7168,-363.19921)"
         id="path63" /></clipPath><clipPath
       clipPathUnits="userSpaceOnUse"
       id="clipPath65"><path
         d="M 0,500 H 500 V 0 H 0 Z"
         transform="translate(-228.68361,-358.82281)"
         id="path65" /></clipPath><clipPath
       clipPathUnits="userSpaceOnUse"
       id="clipPath67"><path
         d="M 0,500 H 500 V 0 H 0 Z"
         transform="translate(-193.99761,-370.49761)"
         id="path67" /></clipPath><clipPath
       clipPathUnits="userSpaceOnUse"
       id="clipPath69"><path
         d="M 0,500 H 500 V 0 H 0 Z"
         transform="translate(-232.76761,-366.26321)"
         id="path69" /></clipPath><clipPath
       clipPathUnits="userSpaceOnUse"
       id="clipPath71"><path
         d="M 0,500 H 500 V 0 H 0 Z"
         transform="translate(-196.74801,-371.17041)"
         id="path71" /></clipPath><clipPath
       clipPathUnits="userSpaceOnUse"
       id="clipPath73"><path
         d="M 0,500 H 500 V 0 H 0 Z"
         transform="translate(-196.4097,-369.38721)"
         id="path73" /></clipPath><clipPath
       clipPathUnits="userSpaceOnUse"
       id="clipPath75"><path
         d="M 0,500 H 500 V 0 H 0 Z"
         transform="translate(-195.24801,-364.28171)"
         id="path75" /></clipPath><clipPath
       clipPathUnits="userSpaceOnUse"
       id="clipPath77"><path
         d="M 0,500 H 500 V 0 H 0 Z"
         transform="translate(-211.85941,-351.41461)"
         id="path77" /></clipPath><clipPath
       clipPathUnits="userSpaceOnUse"
       id="clipPath79"><path
         d="M 0,500 H 500 V 0 H 0 Z"
         transform="translate(-202.9258,-366.89111)"
         id="path79" /></clipPath><clipPath
       clipPathUnits="userSpaceOnUse"
       id="clipPath81"><path
         d="M 0,500 H 500 V 0 H 0 Z"
         transform="translate(-220.09281,-356.53761)"
         id="path81" /></clipPath><clipPath
       clipPathUnits="userSpaceOnUse"
       id="clipPath83"><path
         d="M 0,500 H 500 V 0 H 0 Z"
         transform="translate(-221.20701,-361.59721)"
         id="path83" /></clipPath><clipPath
       clipPathUnits="userSpaceOnUse"
       id="clipPath85"><path
         d="M 0,500 H 500 V 0 H 0 Z"
         transform="translate(-205.51221,-371.80571)"
         id="path85" /></clipPath><clipPath
       clipPathUnits="userSpaceOnUse"
       id="clipPath87"><path
         d="M 0,500 H 500 V 0 H 0 Z"
         transform="translate(-205.1011,-349.69921)"
         id="path87" /></clipPath><clipPath
       clipPathUnits="userSpaceOnUse"
       id="clipPath88"><path
         d="m 197.867,369.748 h 1.519 v -9.852 h -1.519 z"
         transform="translate(-199.3857,-369.62601)"
         id="path88" /></clipPath><clipPath
       clipPathUnits="userSpaceOnUse"
       id="clipPath90"><path
         d="M 0,500 H 500 V 0 H 0 Z"
         transform="matrix(1.3333333,0,0,-1.3333333,0,666.66667)"
         id="path90" /></clipPath><clipPath
       clipPathUnits="userSpaceOnUse"
       id="clipPath91"><path
         d="m 209.67,368.394 h 2.4 v -7.623 h -2.4 z"
         transform="translate(-209.8579,-368.36521)"
         id="path91" /></clipPath><clipPath
       clipPathUnits="userSpaceOnUse"
       id="clipPath93"><path
         d="M 0,500 H 500 V 0 H 0 Z"
         transform="matrix(1.3333333,0,0,-1.3333333,0,666.66667)"
         id="path93" /></clipPath><clipPath
       clipPathUnits="userSpaceOnUse"
       id="clipPath94"><path
         d="m 220.695,360.709 h 4.55 v -3.592 h -4.55 z"
         transform="translate(-220.6987,-357.25631)"
         id="path94" /></clipPath><clipPath
       clipPathUnits="userSpaceOnUse"
       id="clipPath96"><path
         d="M 0,500 H 500 V 0 H 0 Z"
         transform="matrix(1.3333333,0,0,-1.3333333,0,666.66667)"
         id="path96" /></clipPath><clipPath
       clipPathUnits="userSpaceOnUse"
       id="clipPath98"><path
         d="M 0,500 H 500 V 0 H 0 Z"
         transform="translate(-199.4775,-359.17481)"
         id="path98" /></clipPath><clipPath
       clipPathUnits="userSpaceOnUse"
       id="clipPath100"><path
         d="M 0,500 H 500 V 0 H 0 Z"
         transform="translate(-415.88181,-100.91801)"
         id="path100" /></clipPath><clipPath
       clipPathUnits="userSpaceOnUse"
       id="clipPath102"><path
         d="M 0,500 H 500 V 0 H 0 Z"
         transform="translate(-166.5811,-115.2041)"
         id="path102" /></clipPath><clipPath
       clipPathUnits="userSpaceOnUse"
       id="clipPath104"><path
         d="M 0,500 H 500 V 0 H 0 Z"
         transform="translate(-274.66311,-175.8242)"
         id="path104" /></clipPath><clipPath
       clipPathUnits="userSpaceOnUse"
       id="clipPath106"><path
         d="M 0,500 H 500 V 0 H 0 Z"
         transform="translate(-242.86281,-178.7051)"
         id="path106" /></clipPath><clipPath
       clipPathUnits="userSpaceOnUse"
       id="clipPath108"><path
         d="M 0,500 H 500 V 0 H 0 Z"
         transform="translate(-197.0859,-318.32281)"
         id="path108" /></clipPath><clipPath
       clipPathUnits="userSpaceOnUse"
       id="clipPath110"><path
         d="M 0,500 H 500 V 0 H 0 Z"
         transform="translate(-209.49171,-307.91991)"
         id="path110" /></clipPath><clipPath
       clipPathUnits="userSpaceOnUse"
       id="clipPath112"><path
         d="M 0,500 H 500 V 0 H 0 Z"
         transform="translate(-217.71531,-266.7798)"
         id="path112" /></clipPath><clipPath
       clipPathUnits="userSpaceOnUse"
       id="clipPath114"><path
         d="M 0,500 H 500 V 0 H 0 Z"
         transform="translate(-196.6519,-220.0605)"
         id="path114" /></clipPath><clipPath
       clipPathUnits="userSpaceOnUse"
       id="clipPath116"><path
         d="M 0,500 H 500 V 0 H 0 Z"
         transform="translate(-250.22311,-210.1914)"
         id="path116" /></clipPath><clipPath
       clipPathUnits="userSpaceOnUse"
       id="clipPath118"><path
         d="M 0,500 H 500 V 0 H 0 Z"
         transform="translate(-247.88871,-224.87601)"
         id="path118" /></clipPath><clipPath
       clipPathUnits="userSpaceOnUse"
       id="clipPath120"><path
         d="M 0,500 H 500 V 0 H 0 Z"
         transform="translate(-244.61131,-281.082)"
         id="path120" /></clipPath><clipPath
       clipPathUnits="userSpaceOnUse"
       id="clipPath122"><path
         d="M 0,500 H 500 V 0 H 0 Z"
         transform="translate(-394.10451,-157.3691)"
         id="path122" /></clipPath><clipPath
       clipPathUnits="userSpaceOnUse"
       id="clipPath124"><path
         d="M 0,500 H 500 V 0 H 0 Z"
         transform="translate(-419.10841,-71.887702)"
         id="path124" /></clipPath><clipPath
       clipPathUnits="userSpaceOnUse"
       id="clipPath126"><path
         d="M 0,500 H 500 V 0 H 0 Z"
         transform="translate(-209.79741,-333.91161)"
         id="path126" /></clipPath><clipPath
       clipPathUnits="userSpaceOnUse"
       id="clipPath128"><path
         d="M 0,500 H 500 V 0 H 0 Z"
         transform="translate(-113.07711,-265.62791)"
         id="path128" /></clipPath><clipPath
       clipPathUnits="userSpaceOnUse"
       id="clipPath130"><path
         d="M 0,500 H 500 V 0 H 0 Z"
         transform="translate(-116.8569,-266.73141)"
         id="path130" /></clipPath><clipPath
       clipPathUnits="userSpaceOnUse"
       id="clipPath132"><path
         d="M 0,500 H 500 V 0 H 0 Z"
         transform="translate(-115.32321,-265.8633)"
         id="path132" /></clipPath><clipPath
       clipPathUnits="userSpaceOnUse"
       id="clipPath134"><path
         d="M 0,500 H 500 V 0 H 0 Z"
         transform="translate(-115.4521,-256.1094)"
         id="path134" /></clipPath><clipPath
       clipPathUnits="userSpaceOnUse"
       id="clipPath136"><path
         d="M 0,500 H 500 V 0 H 0 Z"
         transform="translate(-116.33301,-257.30421)"
         id="path136" /></clipPath><clipPath
       clipPathUnits="userSpaceOnUse"
       id="clipPath138"><path
         d="M 0,500 H 500 V 0 H 0 Z"
         transform="translate(-209.79741,-333.91161)"
         id="path138" /></clipPath></defs><g
     id="layer-MC1"
     transform="matrix(0.26458333,0,0,0.26458334,179.96706,-96.907284)"><g
       id="g2"><path
         id="path4"
         d="M 0,0 C -0.812,2.026 -2.184,3.403 -3.344,3.975 -3.906,4.279 -4.436,4.4 -4.775,4.458 -5.1,4.493 -5.273,4.512 -5.273,4.512 -5.403,4.525 -5.523,4.437 -5.547,4.306 -5.57,4.17 -5.479,4.041 -5.343,4.017 c 0,0 0.171,-0.031 0.493,-0.087 0.296,-0.074 0.705,-0.202 1.206,-0.498 1.004,-0.547 2.157,-1.859 2.855,-3.741 0.349,-0.939 0.581,-2.013 0.649,-3.162 0.014,-0.302 0.034,-0.554 0.02,-0.87 -0.002,-0.31 -0.011,-0.618 -0.046,-0.904 -0.044,-0.583 -0.15,-1.202 -0.294,-1.802 -0.304,-1.199 -0.834,-2.401 -1.654,-3.363 -0.785,-0.979 -1.989,-1.636 -3.133,-1.653 -1.286,-0.032 -2.388,0.625 -3.261,1.549 -0.85,0.938 -1.456,2.1 -1.806,3.29 -0.356,1.197 -0.517,2.395 -0.507,3.567 0.008,1.133 0.186,2.229 0.493,3.178 0.606,1.912 1.7,3.275 2.684,3.854 0.339,0.215 0.63,0.337 0.888,0.427 C -6.927,3.914 -7.105,4.056 -7.289,4.22 -7.498,4.141 -7.723,4.044 -7.961,3.906 -9.104,3.295 -10.415,1.854 -11.129,-0.21 c -0.365,-1.028 -0.594,-2.184 -0.64,-3.444 -0.045,-1.219 0.076,-2.558 0.464,-3.866 0.375,-1.312 1.025,-2.616 2.005,-3.72 0.492,-0.55 1.094,-1.027 1.777,-1.383 0.339,-0.186 0.707,-0.311 1.092,-0.418 l 0.616,-0.112 0.521,-0.025 c 1.666,0.03 3.075,0.93 4.001,2.074 0.948,1.14 1.515,2.486 1.837,3.81 0.148,0.67 0.269,1.32 0.294,1.993 0.027,0.34 0.026,0.654 0.018,0.957 0.005,0.299 -0.024,0.651 -0.049,0.946 C 0.695,-2.161 0.409,-1.008 0,0"
         style="fill:#719885;fill-opacity:1;fill-rule:nonzero;stroke:none"
         transform="matrix(1.3333333,0,0,-1.3333333,-477.2159,540.60362)"
         clip-path="url(#clipPath5)" /><path
         id="path6"
         d="M 0,0 C 1.024,1.645 2.56,6.951 2.712,8.241 2.771,8.766 4.193,7.529 4.079,5.438 3.963,3.347 3.283,0.968 3.213,0.911 3.146,0.854 -0.114,-0.062 -0.114,-0.062"
         style="fill:#b48b77;fill-opacity:1;fill-rule:nonzero;stroke:none"
         transform="matrix(1.3333333,0,0,-1.3333333,-434.76137,435.52482)"
         clip-path="url(#clipPath7)" /><path
         id="path8"
         d="m 0,0 -6.517,-50.533 7.096,-48.415 c 0,0 39.984,14.396 38.811,46.267 C 37.793,-9.341 0,0 0,0"
         style="fill:#682a43;fill-opacity:1;fill-rule:nonzero;stroke:none"
         transform="matrix(1.3333333,0,0,-1.3333333,-422.22497,366.26375)"
         clip-path="url(#clipPath9)" /><path
         id="path10"
         d="M 0,0 -45.183,-5.695 0.445,-3.652 C 0.327,-2.404 0.178,-1.187 0,0"
         style="fill:#7f2c46;fill-opacity:1;fill-rule:nonzero;stroke:none"
         transform="matrix(1.3333333,0,0,-1.3333333,-370.6703,426.04829)"
         clip-path="url(#clipPath11)" /><path
         id="path12"
         d="M 0,0 -45.914,2.683 -0.1,-3.728 C -0.002,-2.513 0.029,-1.271 0,0"
         style="fill:#7f2c46;fill-opacity:1;fill-rule:nonzero;stroke:none"
         transform="matrix(1.3333333,0,0,-1.3333333,-369.69497,437.21882)"
         clip-path="url(#clipPath13)" /><path
         id="path14"
         d="M 0,0 -45.108,11.141 -0.99,-3.616 C -0.601,-2.442 -0.271,-1.237 0,0"
         style="fill:#7f2c46;fill-opacity:1;fill-rule:nonzero;stroke:none"
         transform="matrix(1.3333333,0,0,-1.3333333,-370.76924,448.49562)"
         clip-path="url(#clipPath15)" /><path
         id="path16"
         d="M 0,0 -42.317,19.197 -1.782,-3.292 C -1.144,-2.228 -0.546,-1.132 0,0"
         style="fill:#7f2c46;fill-opacity:1;fill-rule:nonzero;stroke:none"
         transform="matrix(1.3333333,0,0,-1.3333333,-374.49057,459.23708)"
         clip-path="url(#clipPath17)" /><path
         id="path18"
         d="M 0,0 -37.854,26.436 -2.36,-2.875 C -1.543,-1.952 -0.756,-0.994 0,0"
         style="fill:#7f2c46;fill-opacity:1;fill-rule:nonzero;stroke:none"
         transform="matrix(1.3333333,0,0,-1.3333333,-380.4411,468.88948)"
         clip-path="url(#clipPath19)" /><path
         id="path20"
         d="m 0,0 -32.206,32.726 29.455,-35.2 C -1.821,-1.685 -0.901,-0.862 0,0"
         style="fill:#7f2c46;fill-opacity:1;fill-rule:nonzero;stroke:none"
         transform="matrix(1.3333333,0,0,-1.3333333,-387.9723,477.27548)"
         clip-path="url(#clipPath21)" /><path
         id="path22"
         d="M 0,0 -25.736,38.136 -3.049,-2.138 C -2.044,-1.468 -1.023,-0.756 0,0"
         style="fill:#7f2c46;fill-opacity:1;fill-rule:nonzero;stroke:none"
         transform="matrix(1.3333333,0,0,-1.3333333,-396.5987,484.48908)"
         clip-path="url(#clipPath23)" /><path
         id="path24"
         d="m 0,0 15.266,-44.672 c 1.053,0.554 2.172,1.171 3.34,1.853 z"
         style="fill:#7f2c46;fill-opacity:1;fill-rule:nonzero;stroke:none"
         transform="matrix(1.3333333,0,0,-1.3333333,-430.91377,433.64135)"
         clip-path="url(#clipPath25)" /><path
         id="path26"
         d="M 0,0 C 0,0 1.408,0.508 3.689,1.542 L -7.096,48.415 Z"
         style="fill:#7f2c46;fill-opacity:1;fill-rule:nonzero;stroke:none"
         transform="matrix(1.3333333,0,0,-1.3333333,-421.45284,498.19482)"
         clip-path="url(#clipPath27)" /><path
         id="path28"
         d="m 0,0 c -0.302,1.212 -0.638,2.391 -1.001,3.533 l -43.02,-15.039 z"
         style="fill:#7f2c46;fill-opacity:1;fill-rule:nonzero;stroke:none"
         transform="matrix(1.3333333,0,0,-1.3333333,-372.21844,418.29829)"
         clip-path="url(#clipPath29)" /><path
         id="path30"
         d="M 0,0 C -0.482,1.163 -0.993,2.287 -1.531,3.37 L -41.404,-19.462 Z"
         style="fill:#7f2c46;fill-opacity:1;fill-rule:nonzero;stroke:none"
         transform="matrix(1.3333333,0,0,-1.3333333,-375.70804,407.69029)"
         clip-path="url(#clipPath31)" /><path
         id="path32"
         d="m 0,0 c -0.672,1.083 -1.37,2.12 -2.088,3.115 l -35.47,-30.107 z"
         style="fill:#7f2c46;fill-opacity:1;fill-rule:nonzero;stroke:none"
         transform="matrix(1.3333333,0,0,-1.3333333,-380.83697,397.65055)"
         clip-path="url(#clipPath33)" /><path
         id="path34"
         d="M 0,0 C -0.855,0.979 -1.728,1.905 -2.611,2.778 L -32.458,-33.886 Z"
         style="fill:#7f2c46;fill-opacity:1;fill-rule:nonzero;stroke:none"
         transform="matrix(1.3333333,0,0,-1.3333333,-387.63644,388.45842)"
         clip-path="url(#clipPath35)" /><path
         id="path36"
         d="M 0,0 C -1.034,0.855 -2.067,1.647 -3.088,2.378 L -26.193,-39.966 Z"
         style="fill:#7f2c46;fill-opacity:1;fill-rule:nonzero;stroke:none"
         transform="matrix(1.3333333,0,0,-1.3333333,-395.98924,380.35162)"
         clip-path="url(#clipPath37)" /><path
         id="path38"
         d="M 0,0 C -1.222,0.723 -2.402,1.364 -3.514,1.924 L -18.876,-45.103 Z"
         style="fill:#7f2c46;fill-opacity:1;fill-rule:nonzero;stroke:none"
         transform="matrix(1.3333333,0,0,-1.3333333,-405.74577,373.50335)"
         clip-path="url(#clipPath39)" /><path
         id="path40"
         d="M 0,0 C -2.021,0.792 -3.429,1.198 -3.908,1.329 L -10.61,-49.154 Z"
         style="fill:#7f2c46;fill-opacity:1;fill-rule:nonzero;stroke:none"
         transform="matrix(1.3333333,0,0,-1.3333333,-416.76657,368.10109)"
         clip-path="url(#clipPath41)" /><path
         id="path42"
         d="m 0,0 c 4.539,-0.887 9.474,3.933 9.474,3.933 0,0 1.463,-2.835 2.615,-4.785 0.922,-1.553 2.527,-1.931 2.527,-1.931 0.309,-1.123 1.815,-2.273 1.708,-1.637 -0.141,0.852 -0.692,3.919 -1.011,5.293 -0.157,0.675 -1.406,4.172 -1.406,4.172 0,0 2.905,-1.304 3.235,-1.581 0.328,-0.276 2.824,-2.254 4.298,-3.463 1.916,-1.57 3.967,-2.037 3.611,-1.458 -1.14,1.857 -5.466,6.198 -6.185,7.003 -0.719,0.806 -6.706,3.786 -6.965,3.947 -0.257,0.161 3.487,2.228 7.543,4.839 4.03,2.592 4.512,5.4 3.815,4.974 C 21.52,18.236 6.7,9.96 7.479,10.407 7.589,10.471 -0.72,3.911 -3.045,2.628 c -7.735,-4.27 -15.554,-6.725 -33.019,-12.325 -15.366,-4.925 -26.431,-11.722 -26.431,-11.722 -8.469,-14.389 -2.26,-42.329 -1.627,-50.969 0.723,-9.876 -4.159,-22.886 -4.159,-22.886 0,0 16.638,-0.915 19.209,5.233 2.572,6.149 0.322,20.076 -1.865,32.026 -2.187,11.951 -3.018,27.836 -3.018,27.836 0,0 10.043,5.248 14.482,7.566 C -27.701,-16.464 -7.182,-4.153 0,0"
         style="fill:#e4bba5;fill-opacity:1;fill-rule:nonzero;stroke:none"
         transform="matrix(1.3333333,0,0,-1.3333333,-440.98404,445.80028)"
         clip-path="url(#clipPath43)" /><path
         id="path44"
         d="m 0,0 c -0.59,-0.899 -3.221,-3.689 -6.28,-6.935 -1.201,-5.1 -2.644,-8.952 -2.644,-8.952 0,0 16.637,-0.915 19.208,5.234 2.315,5.534 0.724,17.365 -1.213,28.389 C 5.408,20.913 2.34,23.172 2.34,23.172 0.812,14.205 1.557,2.368 0,0"
         style="fill:#b48b77;fill-opacity:1;fill-rule:nonzero;stroke:none"
         transform="matrix(1.3333333,0,0,-1.3333333,-520.12604,551.64988)"
         clip-path="url(#clipPath45)" /><path
         id="path46"
         d="M 0,0 C 0,0 0.209,-0.066 0.506,-0.201 0.651,-0.272 0.827,-0.348 1,-0.46 1.089,-0.515 1.181,-0.571 1.277,-0.646 1.316,-0.668 1.388,-0.731 1.45,-0.821 1.519,-0.924 1.496,-0.937 1.524,-1 1.653,-1.407 1.771,-1.819 1.846,-2.133 1.916,-2.448 1.955,-2.661 1.955,-2.661 L 1.957,-2.667 C 1.968,-2.73 1.926,-2.791 1.862,-2.802 c -0.05,-0.01 -0.101,0.017 -0.124,0.062 0,0 -0.095,0.193 -0.226,0.487 -0.128,0.294 -0.281,0.694 -0.418,1.098 -0.016,0.033 -0.042,0.138 -0.049,0.113 -0.005,-0.006 -0.004,0.01 -0.055,0.045 -0.066,0.058 -0.147,0.116 -0.226,0.17 -0.163,0.113 -0.313,0.217 -0.442,0.307 -0.261,0.184 -0.43,0.316 -0.43,0.316 -0.051,0.041 -0.059,0.115 -0.02,0.165 C -0.098,0 -0.045,0.014 0,0"
         style="fill:#b48b77;fill-opacity:1;fill-rule:nonzero;stroke:none"
         transform="matrix(1.3333333,0,0,-1.3333333,-424.90337,435.47215)"
         clip-path="url(#clipPath47)" /><path
         id="path48"
         d="M 0,0 C 0,0 -0.213,0.604 -0.531,1.51 -0.839,2.421 -1.27,3.624 -1.632,4.858 -1.816,5.475 -2,6.09 -2.172,6.668 c -0.086,0.289 -0.17,0.569 -0.249,0.834 -0.075,0.234 -0.152,0.511 -0.231,0.72 -0.118,0.179 -0.16,0.39 -0.29,0.512 -0.123,0.124 -0.2,0.269 -0.319,0.332 -0.216,0.157 -0.34,0.247 -0.34,0.247 L -3.62,9.327 c -0.051,0.037 -0.062,0.108 -0.026,0.159 0.034,0.046 0.095,0.06 0.144,0.035 0,0 0.151,-0.077 0.415,-0.211 C -2.941,9.26 -2.829,9.101 -2.669,8.959 -2.501,8.82 -2.416,8.583 -2.28,8.358 -2.184,8.123 -2.115,7.897 -2.018,7.61 -1.943,7.346 -1.866,7.068 -1.784,6.78 -1.623,6.205 -1.451,5.59 -1.277,4.976 -0.943,3.745 -0.512,2.533 -0.244,1.611 0.033,0.69 0.218,0.077 0.218,0.077 L 0.219,0.072 C 0.237,0.01 0.203,-0.054 0.142,-0.072 0.083,-0.09 0.021,-0.058 0,0"
         style="fill:#b48b77;fill-opacity:1;fill-rule:nonzero;stroke:none"
         transform="matrix(1.3333333,0,0,-1.3333333,-421.6403,449.56068)"
         clip-path="url(#clipPath49)" /><path
         id="path50"
         d="M 0,0 10.666,-1.375 C 10.491,-0.389 10.314,0.591 10.138,1.556 7.951,13.506 7.12,29.392 7.12,29.392 c 0,0 9.442,4.933 14.062,7.346 C 15.559,36.429 8.649,34.188 3.398,29.173 -6.366,19.847 0,0 0,0"
         style="fill:#b48b77;fill-opacity:1;fill-rule:nonzero;stroke:none"
         transform="matrix(1.3333333,0,0,-1.3333333,-522.41697,525.22802)"
         clip-path="url(#clipPath51)" /><path
         id="path52"
         d="m 0,0 c 0,0 -12.746,2.883 -18.923,-6.624 -6.179,-9.507 5.406,-33.533 25.345,-21.971 z"
         style="fill:#382835;fill-opacity:1;fill-rule:nonzero;stroke:none"
         transform="matrix(1.3333333,0,0,-1.3333333,-517.59017,506.02028)"
         clip-path="url(#clipPath53)" /><path
         id="path54"
         d="m 0,0 c 0.083,-8.575 -2.544,-21.365 -4.101,-23.733 -1.555,-2.368 -17.267,-17.863 -17.698,-20.231 -0.43,-2.368 22.803,5.811 26.145,2.368 3.341,-3.444 3.404,-29.916 21.021,-32.715 0,0 -8.596,7.748 -7.219,22.384 5.842,16.083 1.377,24.589 -1.421,32.202 C 13.929,-12.111 0,0 0,0"
         style="fill:#e4bba5;fill-opacity:1;fill-rule:nonzero;stroke:none"
         transform="matrix(1.3333333,0,0,-1.3333333,-513.0511,522.92068)"
         clip-path="url(#clipPath55)" /><path
         id="path56"
         d="m 0,0 c -0.815,-4.779 2.382,-7.209 2.167,-11.75 1.143,-4.292 -0.214,-12.749 2.688,-14.943 0,0 8.397,-0.726 15.641,2.169 -0.494,1.296 -1.087,2.852 -2.008,5.36 C 15.69,-11.55 0,0 0,0"
         style="fill:#b48b77;fill-opacity:1;fill-rule:nonzero;stroke:none"
         transform="matrix(1.3333333,0,0,-1.3333333,-515.39884,523.66815)"
         clip-path="url(#clipPath57)" /><path
         id="path58"
         d="M 0,0 C 1.842,0.456 3.119,2.742 2.935,4.555 2.875,5.683 2.212,6.909 0.986,6.246 0.058,5.829 0.197,4.439 -0.706,5.373 -1.292,5.854 -1.161,7.214 -2.488,7.026 -3.82,6.837 -3.112,5.183 -4.179,5.076 -4.818,5.011 -5.893,6.574 -6.462,5.276 -7.006,4.251 -5.058,3.639 -6.438,2.907 -7.26,2.5 -9.171,3.278 -7.9,1.358 c 0.503,-0.704 1.544,-0.868 2.094,-1.514 2.027,-2.435 -3.016,0.504 -3.443,0.461 -1.115,-0.167 -0.488,-1.559 -1.498,-1.716 -0.581,-0.112 -1.939,1.583 -2.518,0.393 -0.485,-1.073 1.682,-1.177 0.051,-2.098 -0.357,-0.197 -1.352,0.024 -1.548,-0.696 -0.052,-0.543 0.582,-0.964 0.985,-1.193 0.858,-0.506 2.422,-0.511 1.003,-1.408 -0.762,-0.456 -2.316,-0.558 -0.702,-1.579 0.919,-0.554 2.13,-0.27 3.085,-0.659 2.264,-1.066 -0.933,-0.905 -1.391,-1.704 -0.714,-1.474 1.842,-0.623 1.022,-2.107 -0.363,-0.683 -1.905,-0.893 -2.031,-1.768 -0.192,-1.314 1.469,-1.2 2.205,-1.018 1.733,0.446 1.284,0.616 1.73,-1.118 0.734,-2.459 2.924,-0.136 3.67,1.017 0.327,0.519 0.766,2.02 1.505,1.123 0.502,-0.704 -0.414,-2.304 0.335,-3.308 0.699,-1.061 1.755,-0.846 2.288,0.284 0.398,0.85 -0.322,2.125 1.001,1.828 0.993,-0.224 0.804,-1.536 2.029,-0.872 1.013,0.64 0.19,1.312 1.611,1.132 0.709,-0.09 1.504,-1.033 2.145,0.11 0.456,0.801 -0.318,1.531 -0.654,2.197 -0.161,0.523 -0.823,1.751 0.173,2.013 0.749,0.075 1.133,-1.611 2.094,-0.438 1.629,1.998 -3.642,6.694 -4.776,8.305 z"
         style="fill:#cd2b52;fill-opacity:1;fill-rule:nonzero;stroke:none"
         transform="matrix(1.3333333,0,0,-1.3333333,-521.05177,510.59055)"
         clip-path="url(#clipPath59)" /><path
         id="path60"
         d="M 0,0 C 1.896,-0.063 3.62,-2.034 3.816,-3.847 3.991,-4.962 3.598,-6.298 2.262,-5.905 1.267,-5.69 1.114,-4.301 0.426,-5.402 -0.049,-5.994 0.362,-7.297 -0.976,-7.39 c -1.341,-0.091 -0.993,1.674 -2.058,1.557 -0.638,-0.069 -1.366,-1.821 -2.192,-0.669 -0.745,0.89 1.034,1.892 -0.468,2.321 -0.889,0.228 -2.597,-0.93 -1.752,1.212 0.345,0.794 1.33,1.17 1.735,1.916 1.476,2.803 -2.847,-1.119 -3.273,-1.166 -1.125,-0.068 -0.802,1.424 -1.821,1.368 -0.592,-0.01 -1.569,-1.952 -2.382,-0.908 -0.698,0.95 1.4,1.502 -0.386,2.063 -0.391,0.119 -1.318,-0.303 -1.658,0.36 -0.165,0.52 0.368,1.064 0.715,1.371 0.734,0.674 2.263,1.004 0.689,1.586 -0.84,0.288 -2.381,0.066 -1.015,1.4 0.784,0.732 2.028,0.706 2.882,1.284 1.992,1.512 -1.102,0.692 -1.716,1.378 -1.004,1.294 1.674,0.991 0.563,2.274 -0.496,0.591 -2.049,0.478 -2.354,1.308 -0.46,1.244 1.188,1.478 1.946,1.452 1.788,-0.075 1.384,-0.335 1.459,1.453 0.209,2.558 2.833,0.742 3.803,-0.233 0.427,-0.439 1.168,-1.816 1.705,-0.786 0.345,0.794 -0.884,2.169 -0.36,3.306 0.464,1.183 1.54,1.193 2.298,0.197 0.565,-0.749 0.125,-2.146 1.358,-1.58 0.924,0.425 0.466,1.67 1.803,1.275 1.125,-0.416 0.459,-1.245 1.811,-0.773 0.675,0.235 1.258,1.323 2.122,0.337 C 3.09,15.225 2.484,14.35 2.295,13.628 2.245,13.083 1.853,11.745 2.881,11.696 3.63,11.776 3.655,13.507 4.838,12.558 6.847,10.941 2.666,5.254 1.891,3.443 Z"
         style="fill:#7f2c46;fill-opacity:1;fill-rule:nonzero;stroke:none"
         transform="matrix(1.3333333,0,0,-1.3333333,-514.92217,526.79175)"
         clip-path="url(#clipPath61)" /><path
         id="path62"
         d="m 0,0 c 0,0 -6.366,19.847 3.398,29.173 9.764,9.326 25.269,9.069 27.555,4.615 0,0 7.306,-1.021 10.318,-10.132 C 44.02,15.34 44.325,3.717 33.967,-4.376 Z"
         style="fill:#382835;fill-opacity:1;fill-rule:nonzero;stroke:none"
         transform="matrix(1.3333333,0,0,-1.3333333,-518.73537,525.11082)"
         clip-path="url(#clipPath63)" /><path
         id="path64"
         d="m 0,0 c 10.358,8.094 10.053,19.717 7.304,28.032 -3.012,9.111 -10.318,10.133 -10.318,10.133 0,0 5.899,-3.426 8.413,-13.908 C 9.3,7.993 0,0 0,0"
         style="fill:#582f3f;fill-opacity:1;fill-rule:nonzero;stroke:none"
         transform="matrix(1.3333333,0,0,-1.3333333,-473.4463,530.94602)"
         clip-path="url(#clipPath65)" /><path
         id="path66"
         d="m 0,0 c 0.019,-3.979 1.501,-12.327 1.859,-14.075 0.358,-1.747 4.87,-12.66 10.044,-15.128 0,0 11.037,1.122 17.369,7.998 6.331,6.874 9.498,16.971 9.498,16.971 0,0 -6.134,11.604 -8.362,15.814 0,0 -16.063,-7.811 -28.169,-9.613 z"
         style="fill:#e4bba5;fill-opacity:1;fill-rule:nonzero;stroke:none"
         transform="matrix(1.3333333,0,0,-1.3333333,-519.6943,515.37962)"
         clip-path="url(#clipPath67)" /><path
         id="path68"
         d="m 0,0 c 0,0 -3.167,-10.097 -9.498,-16.971 -6.332,-6.875 -17.369,-7.998 -17.369,-7.998 0,0 10.326,2.379 14.501,6.515 C -7.828,-13.957 0,0 0,0"
         style="fill:#f5cbb5;fill-opacity:1;fill-rule:nonzero;stroke:none"
         transform="matrix(1.3333333,0,0,-1.3333333,-468.00097,521.02548)"
         clip-path="url(#clipPath69)" /><path
         id="path70"
         d="m 0,0 c 0,0 -1.269,5.952 -3.94,4.774 -2.671,-1.178 -1.816,-8.429 -0.246,-10.873 1.569,-2.445 3.102,-1.646 3.102,-1.646 z"
         style="fill:#e4bba5;fill-opacity:1;fill-rule:nonzero;stroke:none"
         transform="matrix(1.3333333,0,0,-1.3333333,-516.0271,514.48255)"
         clip-path="url(#clipPath71)" /><path
         id="path72"
         d="M 0,0 C 0,0 -0.771,4.299 -2.525,3.521 -4.279,2.743 -4,-1.498 -2.964,-3.124 c 1.033,-1.625 2.049,-1.421 2.049,-1.421 z"
         style="fill:#b48b77;fill-opacity:1;fill-rule:nonzero;stroke:none"
         transform="matrix(1.3333333,0,0,-1.3333333,-516.47817,516.86015)"
         clip-path="url(#clipPath73)" /><path
         id="path74"
         d="m 0,0 c 0,-0.226 -0.16,-0.408 -0.358,-0.408 -0.198,0 -0.358,0.182 -0.358,0.408 0,0.225 0.16,0.408 0.358,0.408 C -0.16,0.408 0,0.225 0,0"
         style="fill:#b48b77;fill-opacity:1;fill-rule:nonzero;stroke:none"
         transform="matrix(1.3333333,0,0,-1.3333333,-518.0271,523.66748)"
         clip-path="url(#clipPath75)" /><path
         id="path76"
         d="m 0,0 c 0,0 0.234,-0.117 0.598,-0.352 0.181,-0.115 0.401,-0.254 0.638,-0.417 0.24,-0.153 0.508,-0.346 0.776,-0.476 0.119,-0.073 0.279,-0.115 0.261,-0.106 -0.007,0.004 -0.019,0.003 -0.029,0 l -0.135,-0.057 0.031,0.021 0.129,0.083 c 0.019,0.046 0.03,0.078 0.059,0.105 0.223,0.277 0.48,0.641 0.72,1.017 0.484,0.76 0.992,1.591 1.481,2.433 0.488,0.848 0.975,1.694 1.432,2.488 0.444,0.803 0.857,1.552 1.21,2.195 C 7.87,8.229 8.336,9.092 8.336,9.092 8.365,9.145 8.431,9.165 8.485,9.137 8.531,9.111 8.552,9.056 8.537,9.008 8.536,9.008 8.243,8.063 7.688,6.69 7.424,5.999 7.065,5.214 6.68,4.372 6.287,3.535 5.876,2.637 5.409,1.766 4.949,0.891 4.474,0.022 3.97,-0.771 3.719,-1.174 3.473,-1.542 3.17,-1.926 3.057,-2.054 2.93,-2.178 2.81,-2.28 L 2.683,-2.367 2.651,-2.387 C 2.404,-2.488 2.576,-2.417 2.519,-2.438 L 2.508,-2.44 2.486,-2.444 2.441,-2.45 C 2.381,-2.458 2.32,-2.462 2.262,-2.463 1.849,-2.429 1.655,-2.284 1.46,-2.175 c -0.705,0.497 -1.044,1.021 -1.295,1.398 -0.239,0.379 -0.328,0.632 -0.328,0.632 -0.023,0.062 0.01,0.129 0.071,0.15 C -0.061,0.016 -0.027,0.013 0,0"
         style="fill:#b48b77;fill-opacity:1;fill-rule:nonzero;stroke:none"
         transform="matrix(1.3333333,0,0,-1.3333333,-495.87857,540.82362)"
         clip-path="url(#clipPath77)" /><path
         id="path78"
         d="m 0,0 c -0.001,0 0.071,-0.93 0.358,-2.28 0.157,-0.672 0.331,-1.456 0.633,-2.251 0.295,-0.797 0.696,-1.609 1.218,-2.307 0.265,-0.348 0.566,-0.659 0.889,-0.924 0.333,-0.268 0.651,-0.477 1.003,-0.553 0.715,-0.166 1.481,-0.021 2.118,0.138 0.644,0.155 1.179,0.358 1.568,0.478 0.384,0.138 0.604,0.217 0.604,0.217 0.031,0.011 0.067,-0.006 0.079,-0.038 0.007,-0.022 10e-4,-0.044 -0.012,-0.061 0,0 -0.162,-0.184 -0.493,-0.44 C 7.641,-8.29 7.136,-8.621 6.455,-8.902 5.782,-9.164 4.883,-9.402 3.886,-9.148 3.38,-9.03 2.93,-8.72 2.56,-8.411 2.178,-8.092 1.851,-7.709 1.565,-7.306 0.993,-6.499 0.635,-5.587 0.388,-4.729 0.146,-3.869 -0.009,-3.052 -0.069,-2.347 -0.207,-0.937 -0.12,0 -0.12,0 -0.117,0.033 -0.088,0.058 -0.056,0.055 -0.025,0.054 -0.004,0.029 0,0"
         style="fill:#382835;fill-opacity:1;fill-rule:nonzero;stroke:none"
         transform="matrix(1.3333333,0,0,-1.3333333,-507.79004,520.18828)"
         clip-path="url(#clipPath79)" /><path
         id="path80"
         d="m 0,0 c 0,0 0.069,-0.131 0.198,-0.345 0.128,-0.213 0.324,-0.504 0.596,-0.768 0.278,-0.259 0.618,-0.48 1.053,-0.532 l 0.142,-0.018 c 0.062,0 0.158,-0.01 0.19,-0.002 0.079,0.005 0.212,0.021 0.329,0.051 0.242,0.053 0.496,0.148 0.75,0.251 1.018,0.422 2.007,1.034 2.752,1.473 0.748,0.452 1.245,0.753 1.245,0.753 0.028,0.018 0.066,0.01 0.084,-0.018 0.014,-0.023 0.01,-0.053 -0.006,-0.072 0,0 -0.099,-0.109 -0.274,-0.3 C 6.876,0.291 6.613,0.033 6.288,-0.265 5.624,-0.85 4.7,-1.591 3.594,-2.125 3.315,-2.256 3.021,-2.368 2.707,-2.447 2.547,-2.489 2.397,-2.517 2.197,-2.531 2.092,-2.541 2.048,-2.533 1.97,-2.535 1.844,-2.524 1.795,-2.509 1.704,-2.496 1.384,-2.44 1.072,-2.32 0.83,-2.135 c -0.251,0.169 -0.434,0.389 -0.569,0.598 -0.27,0.424 -0.348,0.821 -0.377,1.09 -0.027,0.269 -0.001,0.427 -0.001,0.428 0.006,0.034 0.037,0.058 0.071,0.052 C -0.026,0.03 -0.009,0.017 0,0"
         style="fill:#382835;fill-opacity:1;fill-rule:nonzero;stroke:none"
         transform="matrix(1.3333333,0,0,-1.3333333,-484.9007,533.99295)"
         clip-path="url(#clipPath81)" /><path
         id="path82"
         d="M 0,0 C 0,0 0.128,0.095 0.361,0.249 0.596,0.394 0.937,0.598 1.359,0.822 1.784,1.042 2.294,1.269 2.857,1.477 3.142,1.573 3.434,1.679 3.742,1.757 4.051,1.831 4.361,1.928 4.685,1.969 5.004,2.03 5.33,2.069 5.654,2.084 5.976,2.126 6.301,2.089 6.612,2.074 6.924,2.071 7.224,1.96 7.506,1.909 7.785,1.834 8.035,1.692 8.266,1.598 8.489,1.475 8.669,1.315 8.833,1.197 9.002,1.083 9.103,0.923 9.193,0.812 9.375,0.583 9.458,0.448 9.458,0.448 9.481,0.414 9.469,0.368 9.435,0.346 9.413,0.332 9.385,0.331 9.363,0.343 L 9.348,0.35 c 0,0 -0.147,0.075 -0.372,0.213 C 8.855,0.623 8.744,0.735 8.562,0.783 8.39,0.844 8.215,0.936 8.009,0.997 7.793,1.044 7.572,1.109 7.329,1.152 7.078,1.17 6.827,1.227 6.551,1.226 6.006,1.241 5.411,1.237 4.815,1.134 4.22,1.065 3.627,0.919 3.067,0.792 2.514,0.644 1.992,0.501 1.551,0.357 1.102,0.229 0.734,0.103 0.477,0.01 0.217,-0.079 0.07,-0.129 0.07,-0.129 0.03,-0.144 -0.012,-0.123 -0.026,-0.084 -0.037,-0.053 -0.025,-0.019 0,0"
         style="fill:#382835;fill-opacity:1;fill-rule:nonzero;stroke:none"
         transform="matrix(1.3333333,0,0,-1.3333333,-483.4151,527.24682)"
         clip-path="url(#clipPath83)" /><path
         id="path84"
         d="M 0,0 C 0,0 0.218,0.029 0.601,0.025 0.985,0.021 1.533,-0.001 2.188,-0.104 2.509,-0.176 2.871,-0.221 3.232,-0.343 3.602,-0.441 3.987,-0.566 4.368,-0.74 4.764,-0.884 5.138,-1.119 5.527,-1.331 5.883,-1.6 6.283,-1.828 6.602,-2.159 L 7.085,-2.644 C 7.24,-2.81 7.36,-3.008 7.5,-3.185 7.789,-3.535 7.962,-3.948 8.146,-4.335 8.36,-4.709 8.407,-5.13 8.518,-5.501 8.641,-5.87 8.636,-6.24 8.662,-6.573 8.675,-6.906 8.723,-7.21 8.671,-7.479 8.639,-7.745 8.611,-7.977 8.589,-8.168 8.542,-8.547 8.503,-8.761 8.503,-8.761 8.498,-8.79 8.47,-8.809 8.442,-8.804 8.419,-8.8 8.401,-8.781 8.398,-8.758 L 8.397,-8.75 c 0,0 -0.027,0.217 -0.061,0.589 -0.015,0.186 -0.032,0.411 -0.053,0.67 0.001,0.259 -0.108,0.537 -0.157,0.845 -0.068,0.306 -0.112,0.642 -0.256,0.966 -0.136,0.326 -0.216,0.693 -0.426,1.014 -0.18,0.336 -0.361,0.681 -0.625,0.981 -0.124,0.154 -0.23,0.326 -0.37,0.468 l -0.437,0.419 c -0.277,0.293 -0.631,0.507 -0.943,0.756 -0.356,0.191 -0.671,0.44 -1.03,0.591 -0.345,0.179 -0.689,0.333 -1.023,0.464 -0.33,0.145 -0.662,0.233 -0.956,0.348 -0.607,0.179 -1.12,0.34 -1.487,0.409 -0.365,0.084 -0.578,0.124 -0.578,0.124 -0.029,0.005 -0.049,0.033 -0.043,0.063 C -0.045,-0.02 -0.023,-0.003 0,0"
         style="fill:#382835;fill-opacity:1;fill-rule:nonzero;stroke:none"
         transform="matrix(1.3333333,0,0,-1.3333333,-504.3415,513.63548)"
         clip-path="url(#clipPath85)" /><path
         id="path86"
         d="m 0,0 c 0,0 5.39,-2.819 5.983,-3.284 0.592,-0.464 -0.964,-0.925 -0.964,-0.925 0,0 -0.855,-1.117 -1.963,-0.651 C 1.95,-4.394 0.305,-1.748 0,0"
         style="fill:#ce2e52;fill-opacity:1;fill-rule:nonzero;stroke:none"
         transform="matrix(1.3333333,0,0,-1.3333333,-504.88964,543.11082)"
         clip-path="url(#clipPath87)" /><g
         opacity="0.399994"
         id="g89"
         clip-path="url(#clipPath90)"
         transform="translate(-778.35777,342.70975)"><path
           d="M 0,0 C 0,0 -0.01,-0.159 -0.023,-0.437 -0.048,-0.7 -0.062,-1.086 -0.118,-1.531 -0.148,-1.753 -0.146,-2.001 -0.184,-2.253 -0.2,-2.509 -0.261,-2.77 -0.273,-3.049 -0.29,-3.327 -0.327,-3.611 -0.361,-3.901 -0.409,-4.19 -0.394,-4.487 -0.406,-4.784 c -0.015,-0.298 -0.031,-0.595 -0.045,-0.888 -0.002,-0.293 0.022,-0.58 0.026,-0.861 0.006,-0.28 0.019,-0.552 0.015,-0.812 -0.014,-0.262 0.042,-0.501 0.057,-0.728 0.099,-0.9 0.11,-1.531 0.111,-1.531 l -0.001,-0.014 c 0.002,-0.06 -0.046,-0.11 -0.107,-0.111 -0.046,-0.001 -0.085,0.026 -0.103,0.065 0.001,0 -0.251,0.569 -0.547,1.47 -0.071,0.226 -0.169,0.468 -0.208,0.736 -0.054,0.265 -0.099,0.547 -0.147,0.84 -0.044,0.294 -0.113,0.597 -0.131,0.909 -0.01,0.312 -0.019,0.629 -0.03,0.946 0.002,0.319 -0.019,0.637 0.023,0.949 0.028,0.312 0.051,0.62 0.094,0.915 0.024,0.297 0.107,0.577 0.177,0.842 0.072,0.265 0.136,0.515 0.231,0.738 0.179,0.445 0.36,0.805 0.524,1.045 0.15,0.243 0.264,0.356 0.264,0.356 l 0.008,0.006 C -0.15,0.133 -0.077,0.133 -0.033,0.087 -0.009,0.063 0.002,0.032 0,0"
           style="fill:#b48b77;fill-opacity:1;fill-rule:nonzero;stroke:none"
           transform="matrix(1.3333333,0,0,-1.3333333,265.8476,173.832)"
           clip-path="url(#clipPath88)"
           id="path89" /></g><g
         opacity="0.399994"
         id="g92"
         clip-path="url(#clipPath93)"
         transform="translate(-778.35777,342.70975)"><path
           d="M 0,0 C 0,0 0.39,-0.342 0.816,-0.972 1.244,-1.599 1.719,-2.514 1.976,-3.517 2.101,-4.017 2.201,-4.53 2.208,-5.021 2.23,-5.51 2.164,-5.972 2.073,-6.353 1.972,-6.735 1.849,-7.038 1.727,-7.238 1.62,-7.44 1.542,-7.547 1.542,-7.547 1.504,-7.599 1.432,-7.609 1.379,-7.571 1.354,-7.554 1.34,-7.528 1.333,-7.5 l -0.002,0.012 c 0,0 -0.025,0.132 -0.04,0.348 -0.011,0.214 -0.032,0.514 -0.07,0.863 0.002,0.173 -0.04,0.361 -0.056,0.557 -0.004,0.196 -0.047,0.401 -0.071,0.615 -0.047,0.424 -0.118,0.878 -0.208,1.331 -0.095,0.453 -0.205,0.906 -0.327,1.331 -0.121,0.425 -0.243,0.824 -0.357,1.166 -0.231,0.694 -0.385,1.156 -0.385,1.156 -0.019,0.06 0.013,0.124 0.072,0.143 C -0.072,0.036 -0.03,0.026 0,0"
           style="fill:#b48b77;fill-opacity:1;fill-rule:nonzero;stroke:none"
           transform="matrix(1.3333333,0,0,-1.3333333,279.81053,175.51307)"
           clip-path="url(#clipPath91)"
           id="path92" /></g><g
         opacity="0.399994"
         id="g95"
         clip-path="url(#clipPath96)"
         transform="translate(-778.35777,342.70975)"><path
           d="M 0,0 C 0,0 0.097,0.367 0.364,0.855 0.507,1.093 0.673,1.373 0.89,1.649 1.107,1.925 1.367,2.197 1.655,2.442 1.948,2.682 2.259,2.905 2.585,3.059 2.901,3.225 3.226,3.327 3.503,3.384 3.783,3.452 4.022,3.455 4.188,3.453 4.353,3.455 4.446,3.447 4.446,3.447 4.506,3.442 4.551,3.387 4.546,3.326 4.542,3.286 4.518,3.253 4.485,3.237 L 4.472,3.23 c 0,0 -0.085,-0.041 -0.225,-0.095 C 4.099,3.092 3.904,2.992 3.675,2.882 3.216,2.658 2.65,2.307 2.131,1.875 1.614,1.442 1.126,0.954 0.777,0.562 0.422,0.174 0.193,-0.1 0.193,-0.1 0.155,-0.147 0.084,-0.153 0.036,-0.114 0.002,-0.085 -0.011,-0.041 0,0"
           style="fill:#b48b77;fill-opacity:1;fill-rule:nonzero;stroke:none"
           transform="matrix(1.3333333,0,0,-1.3333333,294.26493,190.32493)"
           clip-path="url(#clipPath94)"
           id="path95" /></g><path
         id="path97"
         d="M 0,0 C -0.475,2.131 -1.605,3.711 -2.658,4.462 -3.164,4.854 -3.667,5.059 -3.993,5.171 -4.308,5.258 -4.476,5.305 -4.476,5.305 -4.601,5.339 -4.734,5.271 -4.778,5.146 -4.824,5.015 -4.755,4.873 -4.624,4.827 c 0,0 0.164,-0.057 0.473,-0.165 0.279,-0.12 0.663,-0.314 1.109,-0.686 0.903,-0.702 1.828,-2.183 2.214,-4.153 0.192,-0.983 0.248,-2.081 0.129,-3.225 -0.034,-0.301 -0.056,-0.553 -0.121,-0.862 -0.052,-0.306 -0.111,-0.609 -0.191,-0.885 -0.137,-0.568 -0.343,-1.162 -0.582,-1.731 -0.493,-1.134 -1.21,-2.235 -2.175,-3.052 -0.933,-0.839 -2.226,-1.293 -3.358,-1.125 -1.275,0.177 -2.256,1.002 -2.969,2.055 -0.687,1.064 -1.097,2.308 -1.251,3.54 -0.157,1.238 -0.123,2.446 0.076,3.601 0.19,1.116 0.544,2.17 1,3.057 0.907,1.789 2.207,2.957 3.272,3.369 0.369,0.158 0.676,0.231 0.944,0.279 -0.15,0.137 -0.303,0.306 -0.458,0.498 -0.219,-0.044 -0.456,-0.104 -0.714,-0.201 -1.227,-0.418 -2.753,-1.629 -3.791,-3.55 -0.526,-0.956 -0.938,-2.06 -1.188,-3.296 -0.242,-1.195 -0.338,-2.537 -0.166,-3.89 0.159,-1.355 0.588,-2.747 1.378,-3.995 0.397,-0.622 0.913,-1.19 1.53,-1.652 0.305,-0.238 0.647,-0.42 1.011,-0.589 l 0.589,-0.21 0.51,-0.108 c 1.649,-0.24 3.186,0.421 4.284,1.4 1.119,0.972 1.896,2.209 2.427,3.463 0.256,0.638 0.48,1.26 0.612,1.919 0.083,0.332 0.132,0.641 0.174,0.942 0.053,0.294 0.08,0.647 0.103,0.942 C 0.337,-2.244 0.241,-1.061 0,0"
         style="fill:#719885;fill-opacity:1;fill-rule:nonzero;stroke:none"
         transform="matrix(1.3333333,0,0,-1.3333333,-512.38777,530.47668)"
         clip-path="url(#clipPath98)" /><path
         id="path99"
         d="m 0,0 c -10.137,0.461 -27.648,-10.599 -35.482,-4.146 -2.287,1.769 -3.622,3.842 -4.323,6.146 0.214,0.258 0.433,0.517 0.636,0.766 12.227,15.559 18.488,34.694 17.364,54.05 0.006,-0.121 0.022,-0.244 0.028,-0.365 12.367,67.261 -55.622,95.898 -55.639,95.905 v 0.001 c 0,0 -4.828,-27.281 -29.11,-52.404 -13.805,-14.284 -23.922,-20.261 -33.229,-15.222 -9.795,5.304 -24.563,19.803 -24.133,35.083 0.431,15.284 1.807,56.67 -2.498,63.773 -4.303,7.103 -20.445,5.165 -25.149,6.026 -12.968,2.374 -17.68,26.903 -19.236,32.069 -1.554,5.165 -19.404,8.498 -19.404,8.498 0,0 -10.304,-9.145 -9.738,-10.436 0.568,-1.291 11.974,-15.496 14.342,-17.863 2.367,-2.368 24.533,-24.105 25.61,-28.41 1.076,-4.304 -19.685,-35.467 -23.886,-46.414 -4.367,-11.38 -8.864,-39.501 -35.165,-44.571 -26.301,-5.068 -44.349,24.423 -44.349,24.423 -3.52,-6.014 -6.351,-11.766 -8.588,-17.259 -19.687,-13.077 -34.692,-45.544 -29.053,-65.687 7.372,-25.805 38.708,-19.815 58.523,-25.805 4.608,-1.383 24.423,-6.913 22.119,-15.208 -2.304,-6.911 -24.424,-3.225 -29.492,-3.225 -24.884,-0.46 -52.533,-23.04 -26.728,-44.699 22.119,-19.354 54.837,-19.354 82.025,-11.059 20.737,6.451 38.248,17.05 60.828,18.893 21.198,1.843 34.562,-6.913 50.691,-18.432 21.196,-15.668 45.159,-5.531 67.278,3.685 23.502,10.139 44.238,21.199 58.985,42.857 C 9.678,-18.893 17.052,-0.921 0,0"
         style="fill:#cd2b52;fill-opacity:1;fill-rule:nonzero;stroke:none"
         transform="matrix(1.3333333,0,0,-1.3333333,-223.8487,874.81908)"
         clip-path="url(#clipPath100)" /><path
         id="path101"
         d="M 0,0 C 21.895,6.68 -0.137,22.923 -5.937,38.14 -12.777,23.489 -21.435,10.179 -31.805,-1.541 -21.624,-3.841 -10.507,-3.389 0,0"
         style="fill:#b02c53;fill-opacity:1;fill-rule:nonzero;stroke:none"
         transform="matrix(1.3333333,0,0,-1.3333333,-556.24964,855.77095)"
         clip-path="url(#clipPath102)" /><path
         id="path103"
         d="m 0,0 c 16.233,-5.64 49.1,-3.99 60.019,-14.85 0.679,-0.599 1.329,-1.259 1.94,-1.992 10.138,-11.521 -1.843,-29.953 -8.294,-41.012 -5.529,-9.678 -23.041,-35.484 -4.147,-41.936 17.612,-6.322 41.418,14.351 51.896,26.884 0.214,0.258 0.433,0.516 0.636,0.765 12.226,15.56 18.488,34.695 17.364,54.051 0.006,-0.121 0.022,-0.244 0.027,-0.365 2.625,14.281 1.621,26.816 -1.58,37.71 C 117.004,-12.42 80.202,-6.112 37.982,-1.678 1.333,2.174 -7.99,9.993 -24.44,34.367 -23.257,23.82 -12.195,4.236 0,0"
         style="fill:#b02c53;fill-opacity:1;fill-rule:nonzero;stroke:none"
         transform="matrix(1.3333333,0,0,-1.3333333,-412.1403,774.94415)"
         clip-path="url(#clipPath104)" /><path
         id="path105"
         d="m 0,0 c 0,0 -28.87,-80.477 -0.827,-134.939 0.04,0.002 0.078,0.007 0.119,0.012 16.407,1.426 28.12,-3.498 40.053,-11.137 l 28.149,20.654 C 0.675,-82.715 0,0 0,0"
         style="fill:#b02c53;fill-opacity:1;fill-rule:nonzero;stroke:none"
         transform="matrix(1.3333333,0,0,-1.3333333,-454.5407,771.10295)"
         clip-path="url(#clipPath106)" /><path
         id="path107"
         d="m 0,0 c -1.426,1.641 -21.117,2.339 -21.117,2.339 0.398,-0.904 6.113,-8.144 10.315,-13.214 C -5.765,-6.78 0.9,-1.036 0,0"
         style="fill:#b02c53;fill-opacity:1;fill-rule:nonzero;stroke:none"
         transform="matrix(1.3333333,0,0,-1.3333333,-515.57657,584.94602)"
         clip-path="url(#clipPath108)" /><path
         id="path109"
         d="m 0,0 -19,-5.301 c 0.584,-0.581 1.816,-1.8 3.444,-3.427 L 0.058,-0.152 C 0.039,-0.102 0.019,-0.05 0,0"
         style="fill:#b02c53;fill-opacity:1;fill-rule:nonzero;stroke:none"
         transform="matrix(1.3333333,0,0,-1.3333333,-499.0355,598.81655)"
         clip-path="url(#clipPath110)" /><path
         id="path111"
         d="M 0,0 C -0.319,-4.787 -20.516,-42.298 -14.76,-35.245 -9.003,-28.189 14.921,11.676 8.522,13.153 3.962,14.205 -8.86,20.704 -15.852,24.352 -9.32,17.574 -2.385,9.971 -1.794,7.609 -1.786,7.579 -1.791,7.531 -1.785,7.497 -0.237,4.892 0.144,2.151 0,0"
         style="fill:#b02c53;fill-opacity:1;fill-rule:nonzero;stroke:none"
         transform="matrix(1.3333333,0,0,-1.3333333,-488.0707,653.67002)"
         clip-path="url(#clipPath112)" /><path
         id="path113"
         d="m 0,0 c 0.005,-0.008 -0.016,-0.043 0.004,-0.192 0.014,-0.081 0.032,-0.194 0.035,-0.336 0.003,-0.071 0,-0.151 -0.006,-0.225 -0.005,-0.053 -0.008,-0.11 -0.013,-0.17 -0.037,-0.483 -0.083,-1.195 -0.212,-2.09 -0.242,-1.791 -0.732,-4.335 -1.608,-7.316 -0.236,-0.739 -0.481,-1.51 -0.736,-2.307 -0.283,-0.788 -0.575,-1.603 -0.875,-2.442 -0.339,-0.823 -0.688,-1.669 -1.044,-2.533 -0.386,-0.851 -0.781,-1.723 -1.182,-2.608 -0.44,-0.867 -0.887,-1.748 -1.341,-2.639 -0.486,-0.873 -0.98,-1.758 -1.477,-2.649 -0.505,-0.887 -1.056,-1.756 -1.597,-2.637 l -0.413,-0.656 -0.464,-0.666 c -0.305,-0.419 -0.559,-0.827 -0.912,-1.258 l -1.005,-1.275 -1.018,-1.189 c -0.681,-0.789 -1.372,-1.548 -2.075,-2.288 -1.416,-1.461 -2.827,-2.867 -4.203,-4.199 -2.775,-2.613 -5.365,-5.051 -7.586,-7.14 -0.545,-0.526 -1.067,-1.031 -1.565,-1.509 -0.48,-0.493 -0.944,-0.956 -1.387,-1.385 -0.845,-0.889 -1.59,-1.664 -2.168,-2.33 -0.6,-0.652 -1.025,-1.199 -1.331,-1.565 -0.302,-0.37 -0.465,-0.567 -0.465,-0.567 l -0.397,0.233 c 0,0 0.113,0.233 0.324,0.668 0.211,0.439 0.509,1.098 0.99,1.866 0.441,0.802 1.067,1.705 1.784,2.753 0.733,1.027 1.618,2.143 2.596,3.344 0.988,1.192 2.107,2.433 3.286,3.746 1.207,1.278 2.479,2.622 3.795,4.014 1.334,1.365 2.707,2.768 4.057,4.218 1.329,1.436 2.751,2.934 3.899,4.421 0.305,0.351 0.601,0.805 0.9,1.206 l 0.417,0.581 0.408,0.629 c 0.54,0.841 1.119,1.652 1.638,2.494 0.515,0.842 1.026,1.678 1.531,2.504 0.479,0.841 0.953,1.673 1.419,2.49 0.445,0.83 0.881,1.647 1.309,2.445 0.4,0.815 0.792,1.611 1.172,2.386 0.365,0.784 0.719,1.546 1.061,2.284 0.317,0.749 0.624,1.474 0.918,2.17 0.564,1.401 1.069,2.695 1.463,3.86 0.399,1.165 0.737,2.185 0.975,3.038 0.254,0.849 0.429,1.523 0.54,1.985 0.015,0.057 0.028,0.111 0.04,0.163 0.009,0.029 0.019,0.047 0.032,0.068 0.038,0.046 0.07,0.087 0.095,0.118 0.051,0.096 0.041,0.187 0.048,0.18 z"
         style="fill:#dc315b;fill-opacity:1;fill-rule:nonzero;stroke:none"
         transform="matrix(1.3333333,0,0,-1.3333333,-516.15524,715.96242)"
         clip-path="url(#clipPath114)" /><path
         id="path115"
         d="m 0,0 c 0,0 0.576,-1.592 1.788,-4.284 1.214,-2.688 3.066,-6.477 5.732,-10.705 1.352,-2.101 2.894,-4.318 4.694,-6.502 1.816,-2.169 3.865,-4.327 6.194,-6.278 2.333,-1.945 4.967,-3.644 7.819,-4.948 0.713,-0.323 1.434,-0.64 2.183,-0.885 0.372,-0.13 0.74,-0.274 1.115,-0.393 l 1.142,-0.318 c 0.755,-0.24 1.54,-0.364 2.315,-0.53 0.749,-0.178 1.622,-0.295 2.45,-0.441 3.322,-0.553 6.664,-1.058 9.962,-1.533 3.301,-0.513 6.549,-1.018 9.693,-1.505 3.151,-0.494 6.192,-1.063 9.077,-1.642 2.886,-0.569 5.596,-1.257 8.081,-1.982 2.485,-0.726 4.72,-1.589 6.638,-2.506 1.921,-0.908 3.492,-1.947 4.667,-2.939 1.182,-0.992 1.93,-1.958 2.397,-2.628 0.441,-0.69 0.649,-1.07 0.649,-1.07 l -0.393,-0.243 c 0,0 -0.253,0.336 -0.76,0.919 -0.525,0.57 -1.366,1.334 -2.564,2.125 -1.196,0.793 -2.783,1.547 -4.672,2.236 -1.892,0.692 -4.106,1.263 -6.55,1.796 -2.449,0.524 -5.146,0.93 -8.003,1.358 -2.861,0.422 -5.902,0.756 -9.049,1.148 -3.156,0.38 -6.42,0.772 -9.734,1.172 -3.317,0.44 -6.689,0.908 -10.066,1.431 -1.626,0.252 -3.473,0.541 -5.185,1.058 l -1.292,0.378 c -0.426,0.143 -0.841,0.309 -1.26,0.462 -0.847,0.291 -1.657,0.658 -2.46,1.035 -1.609,0.738 -3.121,1.63 -4.566,2.575 -0.702,0.499 -1.391,1.007 -2.064,1.523 -0.645,0.547 -1.314,1.06 -1.922,1.626 -2.477,2.217 -4.574,4.638 -6.328,7.075 -1.77,2.427 -3.225,4.852 -4.408,7.16 -1.202,2.301 -2.153,4.475 -2.901,6.432 -0.764,1.951 -1.325,3.688 -1.746,5.127 -0.43,1.436 -0.692,2.587 -0.869,3.369 -0.162,0.788 -0.251,1.209 -0.251,1.209 z"
         style="fill:#dc315b;fill-opacity:1;fill-rule:nonzero;stroke:none"
         transform="matrix(1.3333333,0,0,-1.3333333,-444.72697,729.12122)"
         clip-path="url(#clipPath116)" /><path
         id="path117"
         d="m 0,0 c 0,0 -0.36,-1.969 -0.776,-5.453 -0.228,-1.736 -0.452,-3.855 -0.681,-6.283 -0.222,-2.43 -0.459,-5.171 -0.615,-8.167 -0.177,-2.994 -0.322,-6.241 -0.37,-9.674 -0.057,-3.432 -0.055,-7.052 0.042,-10.791 0.119,-3.74 0.308,-7.601 0.614,-11.512 0.152,-1.957 0.319,-3.928 0.549,-5.898 0.188,-1.976 0.466,-3.948 0.725,-5.921 0.224,-1.98 0.587,-3.938 0.874,-5.9 0.317,-1.956 0.711,-3.891 1.058,-5.818 0.416,-1.912 0.83,-3.81 1.239,-5.685 0.462,-1.861 0.886,-3.708 1.353,-5.513 0.501,-1.794 0.996,-3.559 1.479,-5.285 0.522,-1.718 1.033,-3.397 1.531,-5.031 0.55,-1.618 1.112,-3.181 1.61,-4.713 0.507,-1.528 1.101,-2.964 1.614,-4.368 0.265,-0.698 0.525,-1.384 0.776,-2.051 0.274,-0.662 0.54,-1.307 0.8,-1.936 0.523,-1.259 1.001,-2.462 1.486,-3.578 1.003,-2.215 1.856,-4.162 2.6,-5.748 0.775,-1.569 1.377,-2.811 1.777,-3.664 0.405,-0.852 0.621,-1.307 0.621,-1.307 l -0.395,-0.237 c 0,0 -0.282,0.417 -0.809,1.2 -0.535,0.782 -1.3,1.937 -2.266,3.42 -0.954,1.49 -1.982,3.374 -3.232,5.504 -0.582,1.087 -1.162,2.263 -1.794,3.494 -0.316,0.618 -0.638,1.251 -0.968,1.899 -0.321,0.653 -0.606,1.339 -0.92,2.032 -0.605,1.392 -1.292,2.822 -1.899,4.345 -0.615,1.519 -1.215,3.104 -1.84,4.731 -0.566,1.648 -1.148,3.343 -1.743,5.073 -0.543,1.746 -1.042,3.548 -1.582,5.373 -0.495,1.834 -0.955,3.711 -1.439,5.608 -0.403,1.913 -0.813,3.849 -1.225,5.801 -0.341,1.966 -0.729,3.941 -1.038,5.934 -0.28,1.998 -0.635,3.994 -0.852,6.008 -0.242,2.009 -0.471,4.021 -0.628,6.032 -0.194,2.005 -0.325,4.01 -0.441,5.998 -0.145,1.985 -0.178,3.961 -0.261,5.91 -0.031,1.95 -0.058,3.876 -0.05,5.772 0.034,3.788 0.113,7.449 0.349,10.912 0.211,3.464 0.488,6.732 0.826,9.739 0.332,3.008 0.727,5.753 1.092,8.183 0.4,2.423 0.773,4.532 1.124,6.26 0.704,3.454 1.235,5.405 1.235,5.405 z"
         style="fill:#dc315b;fill-opacity:1;fill-rule:nonzero;stroke:none"
         transform="matrix(1.3333333,0,0,-1.3333333,-447.8395,709.54175)"
         clip-path="url(#clipPath118)" /><path
         id="path119"
         d="M 0,0 C 2.637,-4.912 1.774,-37.638 7.504,-56.09 8.001,-38.508 8.838,-3.098 4.885,3.423 1.994,8.195 -6.238,8.886 -12.758,9.087 -7.84,6.909 -1.973,3.676 0,0"
         style="fill:#dc315b;fill-opacity:1;fill-rule:nonzero;stroke:none"
         transform="matrix(1.3333333,0,0,-1.3333333,-452.20937,634.60042)"
         clip-path="url(#clipPath120)" /><path
         id="path121"
         d="M 0,0 C -0.258,4.838 -0.986,9.694 -2.184,14.515 -5.409,27.418 -13.705,39.398 -22.461,49.076 -31.677,60.136 -53.795,80.697 -55.639,95.905 -55.639,95.905 12.368,67.27 0,0"
         style="fill:#682a43;fill-opacity:1;fill-rule:nonzero;stroke:none"
         transform="matrix(1.3333333,0,0,-1.3333333,-252.8851,799.55095)"
         clip-path="url(#clipPath122)" /><path
         id="path123"
         d="m 0,0 c -14.746,-21.658 -35.482,-32.718 -58.984,-42.856 -22.12,-9.216 -46.082,-19.354 -67.279,-3.686 -16.129,11.52 -29.493,20.275 -50.69,18.433 -22.58,-1.844 -40.091,-12.443 -60.828,-18.894 -27.188,-8.295 -59.906,-8.295 -82.025,11.06 -25.805,21.658 1.843,44.238 26.727,44.698 5.069,0 27.188,-3.686 29.492,3.225 2.304,8.295 -17.511,13.826 -22.119,15.208 -19.815,5.991 -51.15,0 -58.523,25.805 -5.761,20.58 9.068,54.035 29.381,66.524 -25.124,-60.293 22.893,-88.919 62.321,-76.201 27.188,8.295 -13.364,31.335 -6.452,48.846 6.913,19.355 49.308,14.747 49.769,-7.372 0.46,-21.658 -21.659,-29.953 -33.64,-43.777 -14.746,-16.59 2.304,-38.709 18.433,-46.082 23.501,-11.06 64.053,-15.207 82.486,7.373 8.294,10.137 8.294,27.649 10.138,40.091 2.304,12.903 5.99,30.413 14.746,41.012 7.834,10.138 25.345,14.747 34.561,3.688 10.137,-11.522 -1.843,-29.953 -8.294,-41.013 -5.53,-9.678 -23.041,-35.483 -4.148,-41.936 17.613,-6.322 41.418,14.351 51.897,26.884 0.701,-2.303 2.036,-4.377 4.322,-6.146 7.834,-6.452 25.346,4.607 35.482,4.146 C 13.825,28.109 6.451,10.138 0,0"
         style="fill:#682a43;fill-opacity:1;fill-rule:nonzero;stroke:none"
         transform="matrix(1.3333333,0,0,-1.3333333,-219.54657,913.52615)"
         clip-path="url(#clipPath124)" /><path
         id="path125"
         d="m 0,0 c -3.763,-1.642 -36.746,-30.133 -45.22,-33.226 -8.475,-3.093 -11.837,-2.691 -16.814,-4.708 -4.977,-2.017 -24.772,-17.769 -28.921,-20.85 -1.587,-1.177 -9.032,-9.662 -9.677,-10.456 -0.644,-0.796 -11.519,-10.627 -10.972,-10.877 0.545,-0.247 4.731,2.43 7.844,4.717 1.648,1.211 3.544,2.944 4.597,3.938 -0.211,-0.338 -0.363,-0.616 -0.395,-0.767 -0.148,-0.696 3.045,-4.361 3.79,-5.207 0.071,-0.081 0.168,-0.144 0.278,-0.197 -0.393,-1.763 -0.623,-3.027 -0.455,-3.003 0.284,0.043 0.944,1.221 1.684,2.799 0.722,0.001 1.558,0.116 2.265,0.204 1.168,-0.001 2.65,0.301 3.379,0.301 1.142,0 -1.043,1.042 -2.86,1.266 -0.298,0.037 -0.843,0.748 -1.355,1.525 0.169,0.418 0.331,0.833 0.485,1.236 0.672,1.765 1.273,4.079 1.573,5.305 1.425,2.412 2.646,5.894 2.24,8.006 0,0 20.985,9.147 28.651,11.837 7.668,2.69 14.405,5.784 14.405,5.784 0,0 34.382,12.785 45.849,16.57 C 4.754,-24.207 2.481,1.106 0,0"
         style="fill:#e4bba5;fill-opacity:1;fill-rule:nonzero;stroke:none"
         transform="matrix(1.3333333,0,0,-1.3333333,-498.6279,564.16095)"
         clip-path="url(#clipPath126)" /><path
         id="path127"
         d="M 0,0 C 0,0 -0.641,-1.042 -1.36,-2.02 -1.704,-2.519 -2.066,-3.005 -2.336,-3.362 -2.62,-3.722 -2.752,-3.954 -2.768,-3.961 -2.776,-4 -2.814,-4.024 -2.853,-4.017 c -0.038,0.009 -0.063,0.047 -0.055,0.086 0.009,-0.019 0.032,0.352 0.258,0.757 0.092,0.219 0.236,0.447 0.39,0.691 0.144,0.253 0.333,0.494 0.512,0.742 0.705,1.004 1.566,1.883 1.566,1.883 0.045,0.045 0.119,0.046 0.164,0.002 C 0.021,0.105 0.027,0.045 0,0"
         style="fill:#b48b77;fill-opacity:1;fill-rule:nonzero;stroke:none"
         transform="matrix(1.3333333,0,0,-1.3333333,-627.5883,655.20588)"
         clip-path="url(#clipPath128)" /><path
         id="path129"
         d="m 0,0 c 0,0 -0.105,-0.813 -0.331,-2.022 -0.237,-1.207 -0.603,-2.821 -1.002,-4.413 -0.201,-0.794 -0.402,-1.589 -0.591,-2.335 -0.208,-0.742 -0.39,-1.434 -0.525,-2.031 -0.3,-1.189 -0.53,-1.984 -0.53,-1.984 -0.002,-0.019 -0.02,-0.032 -0.039,-0.028 -0.017,0.002 -0.028,0.021 -0.028,0.038 0,0 0.101,0.814 0.295,2.035 0.097,0.612 0.223,1.322 0.391,2.073 0.171,0.75 0.353,1.551 0.536,2.352 0.37,1.599 0.807,3.169 1.157,4.352 0.326,1.191 0.583,1.978 0.583,1.978 0.005,0.023 0.028,0.038 0.051,0.032 C -0.013,0.042 0,0.02 0,0"
         style="fill:#b48b77;fill-opacity:1;fill-rule:nonzero;stroke:none"
         transform="matrix(1.3333333,0,0,-1.3333333,-622.54857,653.73455)"
         clip-path="url(#clipPath130)" /><path
         id="path131"
         d="m 0,0 c 0,0 -0.311,-0.473 -0.777,-1.182 -0.234,-0.352 -0.507,-0.762 -0.799,-1.203 -0.293,-0.433 -0.606,-0.91 -0.852,-1.379 l -0.067,-0.16 -0.034,-0.079 -0.009,-0.02 -0.002,-0.005 -10e-4,-0.002 c -0.005,-0.059 0.006,0.078 0.005,0.063 l 10e-4,-0.014 0.006,-0.052 c -10e-4,-0.164 0.066,-0.226 0.1,-0.314 0.098,-0.2 0.243,-0.45 0.385,-0.659 0.287,-0.431 0.564,-0.839 0.808,-1.182 0.49,-0.686 0.808,-1.155 0.808,-1.155 0.036,-0.053 0.022,-0.125 -0.03,-0.161 -0.047,-0.032 -0.109,-0.024 -0.147,0.014 0,0 -0.406,0.397 -0.958,1.048 -0.27,0.331 -0.599,0.707 -0.895,1.16 -0.158,0.228 -0.299,0.448 -0.447,0.745 -0.073,0.168 -0.145,0.357 -0.144,0.481 l -0.006,0.053 -0.002,0.013 c -0.002,-0.013 0.01,0.126 0.006,0.069 l 0.002,0.004 0.002,0.006 0.012,0.029 0.05,0.115 0.101,0.23 c 0.594,1.027 1.306,1.886 1.846,2.55 0.547,0.652 0.936,1.066 0.936,1.066 0.025,0.026 0.065,0.028 0.092,0.004 C 0.013,0.062 0.017,0.026 0,0"
         style="fill:#b48b77;fill-opacity:1;fill-rule:nonzero;stroke:none"
         transform="matrix(1.3333333,0,0,-1.3333333,-624.5935,654.89202)"
         clip-path="url(#clipPath132)" /><path
         id="path133"
         d="M 0,0 C 0,0 0.282,0.899 0.668,1.756 0.862,2.184 1.061,2.61 1.228,2.921 1.394,3.234 1.516,3.438 1.516,3.438 1.533,3.467 1.571,3.478 1.602,3.461 1.626,3.447 1.638,3.417 1.631,3.39 1.631,3.39 1.567,3.162 1.454,2.828 1.341,2.493 1.167,2.057 0.989,1.623 0.63,0.754 0.167,-0.07 0.168,-0.07 0.144,-0.114 0.089,-0.131 0.044,-0.108 0.006,-0.088 -0.012,-0.041 0,0"
         style="fill:#b48b77;fill-opacity:1;fill-rule:nonzero;stroke:none"
         transform="matrix(1.3333333,0,0,-1.3333333,-624.42164,667.89722)"
         clip-path="url(#clipPath134)" /><path
         id="path135"
         d="M 0,0 C 0,0 0.088,-0.071 0.221,-0.177 0.352,-0.291 0.531,-0.416 0.718,-0.529 1.095,-0.773 1.472,-1.017 1.472,-1.017 1.477,-1.02 1.479,-1.025 1.477,-1.03 1.476,-1.034 1.469,-1.036 1.465,-1.035 c 0,0 -0.434,0.142 -0.867,0.286 -0.224,0.069 -0.443,0.149 -0.593,0.225 -0.155,0.068 -0.258,0.115 -0.258,0.115 -0.123,0.054 -0.179,0.198 -0.124,0.321 0.054,0.122 0.198,0.177 0.321,0.123 C -0.037,0.026 -0.016,0.012 0,0"
         style="fill:#b48b77;fill-opacity:1;fill-rule:nonzero;stroke:none"
         transform="matrix(1.3333333,0,0,-1.3333333,-623.2471,666.30415)"
         clip-path="url(#clipPath136)" /><path
         id="path137"
         d="m 0,0 c -3.763,-1.642 -36.746,-30.133 -45.22,-33.226 -8.475,-3.093 -11.837,-2.691 -16.814,-4.708 -4.977,-2.017 -24.772,-17.769 -28.921,-20.85 0,0 25.279,17.051 30.034,18.484 4.754,1.432 17.288,5.178 22.043,7.483 C -34.124,-30.512 0,0 0,0"
         style="fill:#f5cbb5;fill-opacity:1;fill-rule:nonzero;stroke:none"
         transform="matrix(1.3333333,0,0,-1.3333333,-498.6279,564.16095)"
         clip-path="url(#clipPath138)" /></g></g></svg>
